<svg width="512" height="512" viewBox="0 0 512 512" fill="black" xmlns="http://www.w3.org/2000/svg">
  <!-- Centered container group -->
  <g transform="translate(50, 200) scale(1.1)">
    <!-- S Logo -->
    <g>
      <path d="M64.63 21.05 V0 h-41.5 C 10.34 0 0 10.34 0 23.1 v 25.1 C0 60.99 10.34 71.33 23.13 71.33 h 41.5 V50.28 H24.87 c-1.4 0 -2.54 -1.14 -2.54 -2.54 v-19.4 C22.33 22.19 23.47 21.05 24.87 21.05 h39.76 Z"/>
      <path d="M23.13 78.95 v 21.05 h 41.5 c 12.79 0 23.13 -10.34 23.13 -23.1 v -25.1 C 87.76 39.01 77.42 28.67 64.63 28.67 H23.13 v 21.05 h 39.76 c 1.4 0 2.54 1.14 2.54 2.54 v 19.4 c0 1.4 -1.14 2.54 -2.54 2.54 H23.13 Z"/>
    </g>
    <!-- Text "SABAR" as paths -->
    <g transform="translate(98, 59)">
      <!-- S -->
      <path d="M30.64 35.84C27.52 38.32 23.86 39.68 19.54 39.68C14.18 39.68 9.58 37.88 5.74 34.28C1.82 30.68 0 25.64 0 19.32C0 13.08 1.9 8.12 5.62 4.44C9.34 0.76 14.02 0 19.54 0C25.3 0 30.06 1.76 33.74 5.4C37.5 9.04 39.42 13.92 39.42 19.92V22.28H18.94C19.18 25.04 20.3 27.2 22.22 28.84C24.22 30.48 26.62 31.28 29.5 31.28C32.14 31.28 34.58 30.6 36.9 29.24L38.98 34.04C36.22 35.6 33.22 36.4 30.02 36.4C28.38 36.4 26.86 36.16 25.42 35.72L30.64 35.84ZM19.02 14.84H33.26C33.1 12.2 32.22 10.12 30.7 8.52C29.1 6.92 27.02 6.12 24.38 6.12C21.42 6.12 18.94 6.96 16.94 8.64C14.94 10.32 13.58 12.44 13.02 14.84H19.02Z" transform="scale(1.4)"/>
      <!-- A -->
      <path d="M57.66 42.44L49.34 13.24H56.54L60.54 26.44H60.62L64.62 13.24H71.82L63.5 42.44H57.66Z" transform="translate(45, 0) scale(1.4)"/>
      <!-- B -->
      <path d="M96.78 24.76C96.78 20.52 95.46 17 92.78 14.12C90.18 11.24 86.62 9.8 82.22 9.8H70.14V42.44H83.1C87.58 42.44 91.18 41 93.9 38.12C96.7 35.24 98.1 31.64 98.1 27.4V27.32C98.1 25.48 97.74 23.8 96.98 22.28C96.3 20.84 95.34 19.64 94.14 18.6L96.78 24.76ZM76.78 15.64H83.26C85.9 15.64 87.94 16.4 89.38 17.92C90.82 19.44 91.54 21.4 91.54 23.8C91.54 26.28 90.82 28.24 89.38 29.68C87.94 31.12 85.9 31.84 83.26 31.84H76.78V15.64ZM76.78 36.84V26.84H84.14C86.86 26.84 88.94 27.64 90.38 29.24C91.82 30.84 92.54 32.92 92.54 35.48C92.54 38.04 91.82 40.04 90.38 41.48C88.94 42.92 86.86 43.64 84.14 43.64H76.78V36.84Z" transform="translate(80, -9) scale(1.4)"/>
      <!-- A -->
      <path d="M125.74 42.44L117.42 13.24H124.62L128.62 26.44H128.7L132.7 13.24H139.9L131.58 42.44H125.74Z" transform="translate(130, 0) scale(1.4)"/>
      <!-- R -->
      <path d="M161.74 24.76C161.74 20.52 160.42 17 157.74 14.12C155.14 11.24 151.58 9.8 147.18 9.8H135.1V42.44H141.7V30.44H146.5L154.54 42.44H161.9L153.22 29.4C158.74 28.28 161.74 26.44 161.74 22.04V24.76ZM141.7 15.64H148.18C150.82 15.64 152.86 16.4 154.3 17.92C155.74 19.44 156.46 21.4 156.46 23.8C156.46 26.28 155.74 28.24 154.3 29.68C152.86 31.12 150.82 31.84 148.18 31.84H141.7V15.64Z" transform="translate(170, -9) scale(1.4)"/>
    </g>
  </g>
</svg>
