<svg width="512" height="512" viewBox="0 0 512 512" fill="black" xmlns="http://www.w3.org/2000/svg">
  <!-- Centered container group -->
  <g transform="translate(50, 200) scale(1.1)">
    <!-- S Logo -->
    <g>
      <path d="M64.63 21.05 V0 h-41.5 C 10.34 0 0 10.34 0 23.1 v 25.1 C0 60.99 10.34 71.33 23.13 71.33 h 41.5 V50.28 H24.87 c-1.4 0 -2.54 -1.14 -2.54 -2.54 v-19.4 C22.33 22.19 23.47 21.05 24.87 21.05 h39.76 Z"/>
      <path d="M23.13 78.95 v 21.05 h 41.5 c 12.79 0 23.13 -10.34 23.13 -23.1 v -25.1 C 87.76 39.01 77.42 28.67 64.63 28.67 H23.13 v 21.05 h 39.76 c 1.4 0 2.54 1.14 2.54 2.54 v 19.4 c0 1.4 -1.14 2.54 -2.54 2.54 H23.13 Z"/>
    </g>
    <!-- Text "HadirKu" -->
    <text x="98" y="70" font-family="sans-serif" font-size="50" font-weight="bold" letter-spacing="1">HadirKu</text>
  </g>
</svg>