<svg width="512" height="512" viewBox="0 0 512 512" fill="black" xmlns="http://www.w3.org/2000/svg">
    <g transform="translate(0, 50) scale(0.9)">
        <!-- Icon Group -->
        <g transform="translate(20, -50)">
            <!-- Location Pin Shape -->
            <path d="M256 0C167.6 0 96 71.6 96 160C96 248.4 256 512 256 512C256 512 416 248.4 416 160C416 71.6 344.4 0 256 0ZM256 224C220.7 224 192 195.3 192 160C192 124.7 220.7 96 256 96C291.3 96 320 124.7 320 160C320 195.3 291.3 224 256 224Z"/>
        </g>
        <!-- Text "HadirKu" -->
        <text x="50%" y="480" text-anchor="middle" font-family="sans-serif" font-size="90" font-weight="bold">HadirKu</text>
    </g>
</svg>
